<svg width="117" height="117" viewBox="0 0 117 117" fill="none" xmlns="http://www.w3.org/2000/svg">
<path d="M91.6641 50.2174C91.9734 50.1483 92.2975 50.2296 92.5371 50.4371C92.7766 50.6446 92.9031 50.9533 92.8789 51.2692C92.7885 52.448 92.5798 53.6766 92.4375 54.7604L91.583 61.3121L91.582 61.3112L89.2041 80.524C88.5966 85.5749 88.0864 90.8026 87.4531 95.8834C87.185 98.0345 87.0035 100.53 86.458 102.778C86.4476 102.821 86.4339 102.863 86.418 102.904C86.1763 103.526 85.8776 104.113 85.4648 104.676C83.5197 107.332 80.238 109.009 76.8896 110.122C73.5177 111.242 69.9147 111.841 67.1592 112.237L67.1602 112.238C64.2832 112.673 61.3789 112.882 58.4717 112.865H58.4629C55.2093 112.819 50.612 112.361 46.1719 111.398C41.7675 110.443 37.3562 108.959 34.6045 106.775C33.4066 105.824 32.1652 104.553 31.6367 102.819C31.196 101.373 31.0969 99.6285 30.9268 98.3571L29.8047 89.9996L29.8037 89.9938L24.8408 51.3336C24.8014 51.026 24.9074 50.7177 25.127 50.4987C25.3466 50.2796 25.6553 50.1742 25.9629 50.2145C26.6457 50.3038 27.3181 50.4607 27.9473 50.6149C28.5926 50.773 29.1808 50.9259 29.7695 51.0377C31.9472 51.451 34.1947 51.7252 36.4336 51.9781H36.4326C45.8289 52.9614 55.2765 53.3196 64.7168 53.0494H64.7197C73.8455 52.8185 82.7885 52.2002 91.6641 50.2174Z" stroke="black" stroke-width="2" stroke-linejoin="round"/>
<path d="M69.5228 81.0947C70.1446 81.1312 70.6946 81.236 71.1982 81.6435C71.8043 82.1336 72.1531 82.9956 72.2348 83.7727C72.3413 84.79 71.9124 85.6392 71.3007 86.3998C68.7174 89.6126 64.9815 91.4349 60.998 91.7923C56.5003 92.1958 51.3787 90.894 47.9007 87.8364C46.9888 86.9348 45.9076 85.8944 45.6444 84.562C45.499 83.8262 45.607 83.0279 46.0219 82.403C46.4654 81.7345 47.1954 81.2976 47.9628 81.1737C49.8347 80.8718 50.8285 82.8174 52.1657 83.8041C55.6045 86.3421 61.4267 86.8222 65.029 84.3968C66.5463 83.3752 67.6815 81.4211 69.5228 81.0947Z" fill="black"/>
<path d="M70.7219 61.2064C71.9453 61.0951 73.0602 61.3426 74.1107 62.0155C75.5837 62.9589 76.5484 64.6623 76.9279 66.3836C77.3838 68.4116 77.0415 70.5445 75.9769 72.31C75.0512 73.8179 73.7603 74.6506 72.1038 75.0447C70.8868 75.2849 69.4745 74.8486 68.4507 74.1565C66.9763 73.1599 66.0449 71.4956 65.707 69.7255C65.3298 67.7495 65.6771 65.5736 66.7677 63.8903C67.7244 62.414 69.051 61.5457 70.7219 61.2064Z" fill="black"/>
<path d="M46.086 61.1989C47.2472 61.1078 48.3552 61.3583 49.3484 62.0048C50.8572 62.9867 51.7715 64.6425 52.161 66.4141C52.5935 68.3823 52.2982 70.5082 51.2502 72.2224C50.3027 73.7724 49.0264 74.6136 47.3167 75.0201C46.0431 75.2425 44.7909 74.9199 43.7114 74.1914C42.2096 73.1776 41.2618 71.4176 40.9228 69.6229C40.5495 67.6323 40.948 65.5693 42.0321 63.8816C43.0229 62.3593 44.3695 61.5463 46.086 61.1989Z" fill="black"/>
<path d="M56.5928 16.7034C58.2707 16.5475 59.9947 16.8257 61.5361 17.3245C64.7329 18.3589 66.7656 20.2896 68.5459 22.3245C70.3563 24.3939 71.8246 26.4476 74.0566 28.1643C77.6682 30.9422 81.2285 31.5874 85.7881 32.4583C87.2797 32.7432 88.9562 33.0508 90.5049 33.7551C91.4137 34.1685 92.0952 34.6437 92.6357 35.303C93.1607 35.9433 93.5012 36.6967 93.8271 37.5559C93.925 37.8138 93.9119 38.1009 93.791 38.3489C93.6702 38.5967 93.4527 38.7836 93.1895 38.8655C83.8693 41.7604 71.2205 42.0967 61.6611 42.1614L61.6602 42.1604C50.5272 42.4159 35.8982 41.9795 25.0459 38.927C24.7851 38.8536 24.5652 38.6772 24.4365 38.4387C24.308 38.2002 24.2813 37.9196 24.3633 37.6614C24.8288 36.197 25.5343 34.5425 26.541 33.2522C28.2807 31.0221 31.0742 29.3076 33.6416 28.5139C34.3532 28.294 35.0732 28.127 35.7539 27.97C36.4457 27.8104 37.0973 27.6604 37.7324 27.468C39.1166 27.0474 40.4573 26.4835 41.7334 25.7834C42.9411 25.1165 44.0837 24.3849 45.0947 23.511H45.0957C46.0745 22.6648 46.8715 21.8806 47.6348 21.1438C48.3895 20.4152 49.1222 19.7216 49.9268 19.1155C51.5859 17.8655 53.4914 17.0333 56.5791 16.7053L56.5928 16.7034Z" stroke="black" stroke-width="2" stroke-linejoin="round"/>
<path d="M19.7446 37.481C20.0063 37.3451 20.3149 37.3323 20.5874 37.4448C21.5349 37.8362 22.3071 38.2089 23.1655 38.4897C26.2569 39.5012 29.8571 40.0817 33.1646 40.5913H33.1655C39.1338 41.5179 45.1529 42.0532 51.186 42.1948H51.189C53.8696 42.2636 56.5434 42.2118 59.2681 42.2104L62.1089 42.2017C68.7205 42.1616 75.2176 41.957 81.7681 41.1011C85.9116 40.5597 90.1642 39.8964 94.1255 38.7534C94.5774 38.623 95.0288 38.4533 95.5151 38.2661C95.9894 38.0836 96.5065 37.8804 97.0347 37.7114L97.1616 37.6802C97.4608 37.6262 97.7714 37.7108 98.0024 37.9155C98.015 37.9267 98.0185 37.9289 98.0405 37.9468C98.0424 37.9482 98.1631 38.0402 98.2622 38.1821C98.3751 38.3439 98.414 38.4995 98.4253 38.5425C98.4317 38.567 98.4385 38.5927 98.4409 38.603L98.4507 38.644V38.645C98.5473 39.0379 98.5301 39.5967 98.4966 40.0806C98.4595 40.616 98.3864 41.2411 98.2983 41.8579C98.1468 42.9196 97.9393 44.0395 97.771 44.6938L97.7017 44.9438C97.5112 45.5708 97.2392 46.0941 96.9438 46.5894C96.925 46.6209 96.9045 46.6518 96.8823 46.6812C96.3056 47.4424 95.6078 48.0991 94.8169 48.6216L94.8159 48.6206C93.2001 49.6969 90.5945 50.4706 87.6235 51.0522C84.6109 51.642 81.0812 52.0605 77.5171 52.3569C70.3862 52.9499 63.0364 53.0631 59.2427 53.0747H59.2378C53.6059 53.0655 47.9755 52.8834 42.354 52.5278L42.3481 52.5269C37.8256 52.2124 33.0753 51.7598 28.5776 50.7085C27.3039 50.4108 25.7945 50.0244 24.4058 49.3774C23.0132 48.7287 21.6668 47.7845 20.7964 46.3276V46.3267C20.4282 45.7104 20.1846 45.0603 20.0151 44.4048C19.858 43.7967 19.7689 43.181 19.6997 42.604C19.6278 42.0039 19.5807 41.4828 19.5005 40.9468L19.4644 40.7456C19.4241 40.542 19.3704 40.3249 19.3071 40.0474C19.2496 39.795 19.1871 39.4987 19.1558 39.186L19.1353 38.8687C19.129 38.5569 19.2019 38.2736 19.23 38.1489L19.2603 38.0435C19.3432 37.8021 19.5157 37.5998 19.7446 37.481Z" stroke="black" stroke-width="2" stroke-linejoin="round"/>
<path d="M89.8115 2.28101C89.9272 2.25913 90.046 2.25771 90.1621 2.2771C90.4996 2.33359 90.8311 2.42218 91.1523 2.53979C94.2462 3.64651 97.3318 4.9031 100.361 6.06616C101.847 6.63648 103.955 7.26272 105.535 8.10913C106.107 8.41521 106.721 8.96985 107.025 9.67847C107.275 10.2589 107.253 10.8311 107.16 11.2966C107.07 11.7481 106.895 12.1732 106.773 12.4744C106.366 13.4806 105.586 14.6182 104.149 14.8875L104.15 14.8884C103.67 14.9787 103.145 14.9303 102.654 14.8376C102.15 14.7423 101.6 14.5842 101.039 14.3953C99.921 14.019 98.6517 13.4857 97.4492 12.989C96.2232 12.4826 95.067 12.0143 94.1035 11.7253C93.6224 11.581 93.2256 11.4922 92.917 11.4607C92.7651 11.4452 92.6517 11.4462 92.5713 11.4539C92.5071 11.46 92.4768 11.4693 92.4707 11.4714C92.3405 11.5324 92.2285 11.6274 92.0811 11.8591C91.519 12.7428 91.1992 13.8358 90.7285 15.0505L90.7275 15.0525L88.7715 20.0701C87.9679 22.3082 87.0387 24.5439 86.1973 26.7136C85.6905 28.0208 85.1585 29.7329 84.415 31.1277C84.2086 31.5146 83.7744 31.7214 83.3438 31.6384C81.6183 31.3055 79.479 30.8547 77.7588 29.8328C77.3378 29.5826 77.1603 29.0641 77.3389 28.6082L84.0156 11.571L85.7275 7.10132L85.9863 6.39624C86.2618 5.63581 86.596 4.74295 87.0635 4.01147L87.1963 3.81519C87.5119 3.37154 87.8737 3.03257 88.3115 2.78296C88.7934 2.50824 89.3086 2.37609 89.8115 2.28101Z" stroke="black" stroke-width="2" stroke-linejoin="round"/>
</svg>
